<svg width="946" height="256" viewBox="0 0 946 256" fill="none" xmlns="http://www.w3.org/2000/svg">
<rect width="946" height="256" fill="white"/>
<path d="M666.203 66.1064C677.23 66.1065 687.196 68.7269 696.05 74C704.902 79.2724 711.86 86.7097 716.916 96.2578H716.915C721.991 105.661 724.49 116.687 724.49 129.271C724.49 141.897 721.702 152.958 716.048 162.379L716.047 162.378C710.6 171.575 703.078 178.716 693.515 183.777L693.501 183.784L693.487 183.792C683.925 188.666 673.092 191.078 661.036 191.078C652.397 191.078 644.043 189.198 635.992 185.454L635.967 185.442L635.941 185.43C630.755 182.837 626.276 179.623 622.521 175.786V243H591.057V68.8252H618.46L618.695 70.5557L620.635 84.8223C625.2 80.2734 630.493 76.4184 636.503 73.2559L637.285 72.8496C645.933 68.3421 655.587 66.1064 666.203 66.1064ZM480.529 66.1064C491.677 66.1064 501.055 68.4288 508.529 73.2188C513.635 76.491 517.945 80.242 521.439 84.4756L522.867 72.4912L523.077 70.7285H552.142V188.359H520.678V173.656C518.479 175.94 515.829 178.258 512.74 180.61L512.691 180.647C508.714 183.488 503.929 185.916 498.369 187.956L498.37 187.957C492.853 190.049 486.715 191.078 479.985 191.078C468.998 191.078 458.978 188.748 449.967 184.056C440.921 179.346 433.758 172.461 428.497 163.445L428.492 163.438L428.488 163.43C423.198 154.175 420.61 142.846 420.61 129.544C420.61 116.58 423.299 105.344 428.767 95.9189L428.772 95.9082C434.374 86.3886 441.687 79.0603 450.714 73.9814C459.902 68.7327 469.852 66.1065 480.529 66.1064ZM317.832 59.8545V65.6602C317.832 68.4708 318.491 69.528 319.001 69.8975C320.038 70.3787 321.973 70.7285 325.078 70.7285H401.503L399.324 73.8682L338.301 161.796H398.593V188.359H286.183L288.355 185.221L349.247 97.291H316.104C309.848 97.291 304.39 95.3211 299.837 91.3633L299.818 91.3477L299.801 91.3311C295.116 87.0549 292.895 81.0221 292.895 73.5439V59.8545H317.832ZM785.036 70.7285V188.359H753.571V70.7285H785.036ZM844.068 70.7285L844.668 71.5215L871.981 107.642L894.955 71.6523L895.545 70.7285H927.996L925.731 73.8926L887.185 127.746L930.596 185.153L933.02 188.359H894.834L894.234 187.57L865.946 150.397L839.813 187.511L839.216 188.359H806.775L809.1 185.179L849.913 129.329L807.763 73.9395L805.319 70.7285H844.068ZM657.502 93.2139C648.455 93.2139 640.926 95.6404 634.8 100.404C628.88 105.146 624.785 111.393 622.521 119.225V139.145C623.909 146.743 627.629 152.968 633.739 157.889C639.888 162.84 647.142 165.33 655.598 165.33C662.346 165.33 668.441 163.777 673.924 160.693L673.936 160.688L673.947 160.681C679.633 157.58 684.084 153.381 687.339 148.071L687.344 148.063L687.349 148.057C690.763 142.595 692.482 136.442 692.482 129.544C692.482 122.416 690.92 116.146 687.845 110.68C684.752 105.184 680.563 100.915 675.26 97.8369C669.964 94.7626 664.06 93.2139 657.502 93.2139ZM486.512 92.3984C480.337 92.3985 474.712 93.9368 469.594 97.0068L469.572 97.0195L469.551 97.0312C464.45 99.921 460.352 104.089 457.256 109.593L457.242 109.616C454.181 114.888 452.618 121.056 452.618 128.185C452.618 135.116 454.174 141.292 457.248 146.762C460.524 152.269 464.816 156.64 470.135 159.903C475.442 162.979 481.161 164.515 487.328 164.515C496.03 164.515 503.196 162.259 508.954 157.857C514.852 153.307 518.763 147.174 520.678 139.356V116.521C518.608 109.663 514.472 103.948 508.175 99.3535L508.153 99.3379C501.997 94.7222 494.811 92.3984 486.512 92.3984ZM770.255 15C774.781 15 778.869 16.6628 782.461 19.8545C786.128 23.1133 788.026 27.1817 788.026 31.9512C788.026 37.0303 786.165 41.2358 782.412 44.3623C778.815 47.359 774.742 48.9033 770.255 48.9033C765.772 48.9032 761.627 47.3628 757.867 44.3955L757.826 44.3623C754.073 41.2358 752.212 37.0303 752.212 31.9512C752.212 27.1817 754.111 23.1133 757.778 19.8545L757.798 19.8369L757.818 19.8193C761.574 16.6578 765.735 15.0001 770.255 15Z" stroke="black" stroke-width="4"/>
<g clip-path="url(#clip0_3_29)">
<path d="M226 15H0V241H226V15Z" fill="#D86613"/>
<path d="M86.2719 52.6843L86.2106 60.3391C86.1878 63.176 86.783 64.0595 87.0074 64.2871C87.9862 64.7166 89.9371 65.1038 93.2646 65.1304L181.067 65.834L177.467 71.0082L109.258 169.025L176.038 169.56L175.778 201.905L46.5202 200.869L50.1112 195.697L118.175 97.6765L82.9278 97.394C75.6575 97.3358 69.2964 94.9544 64.0214 90.2264L63.9919 90.2002L63.9625 90.1724C58.4768 85.0099 55.9728 77.8074 56.0427 69.0799L56.176 52.4431L86.2719 52.6843Z" stroke="white" stroke-width="6"/>
</g>
<defs>
<clipPath id="clip0_3_29">
<rect width="226" height="226" fill="white" transform="translate(0 15)"/>
</clipPath>
</defs>
</svg>
